<svg width="39" height="32" viewBox="0 0 39 32" fill="none" xmlns="http://www.w3.org/2000/svg">
<path d="M5.90938 0.080225C4.58318 0.316576 3.31004 0.946848 2.31539 1.85943C1.10855 2.95584 0.233258 4.72192 0.04759 6.41577C0.00780411 6.81626 -0.0120889 9.33078 0.0078041 13.4079C0.0276971 19.6121 0.034328 19.7894 0.166948 20.3343C0.538283 21.8115 1.18812 22.9735 2.22918 23.9912C3.09121 24.8381 4.27153 25.5078 5.33912 25.7638C5.59109 25.8163 5.85633 25.8951 5.94254 25.9214L6.08842 25.9805V28.4425C6.08842 30.7403 6.09505 30.9242 6.21441 31.1539C6.55259 31.8039 7.3682 32.0797 8.04456 31.7645C8.19044 31.6923 8.93974 31.1605 9.70231 30.5696C12.0629 28.7642 15.0535 26.4991 15.4381 26.2299L15.8094 25.9739L23.9258 25.9805C29.0714 25.9805 32.2676 25.9542 32.6455 25.9148C35.4239 25.5997 37.7514 23.6826 38.6333 20.9908C38.9715 19.9601 38.9781 19.8616 38.9781 13.0533C38.9781 9.20604 38.9516 6.52738 38.9118 6.25164C38.6863 4.68909 38.0365 3.31037 37.0153 2.21396C36.1865 1.3342 34.8404 0.539797 33.5739 0.191835L32.9108 0.0145702L19.6488 0.00144005C8.9729 -0.00512505 6.29398 0.00800514 5.90938 0.080225ZM32.5792 3.16593C32.8378 3.21845 33.2688 3.36946 33.5407 3.50076C34.2237 3.83559 35.0128 4.61687 35.351 5.30623C35.8549 6.31729 35.8284 5.89711 35.8284 13.0139C35.8284 20.0782 35.8483 19.6974 35.3775 20.6625C34.9199 21.5948 34.0248 22.3498 32.9439 22.7175L32.5129 22.8619L23.6274 22.8948C15.2922 22.9276 14.7286 22.9341 14.5031 23.0458C14.2114 23.1902 12.7658 24.2603 10.3455 26.1249C9.74872 26.591 9.23151 26.9653 9.19835 26.9653C9.1652 26.9653 9.13867 26.289 9.13867 25.4355C9.13867 23.7351 9.09889 23.5513 8.68113 23.2033C8.40926 22.9801 8.09098 22.8948 7.48093 22.8948C6.43323 22.8948 5.6574 22.6781 4.93463 22.1923C4.39089 21.8246 3.91346 21.2731 3.6018 20.656C3.12437 19.7237 3.14426 20.0651 3.12437 13.2437C3.09784 6.77687 3.10448 6.5799 3.40287 5.73954C3.84715 4.479 5.00757 3.44168 6.28735 3.1725C6.95045 3.02806 31.9028 3.02806 32.5792 3.16593Z" fill="black"/>
<path d="M11.2672 10.9852C10.6174 11.215 10.1134 11.6812 9.80839 12.318C9.65588 12.6397 9.63599 12.771 9.63599 13.3422C9.63599 13.9528 9.64925 14.0315 9.85481 14.4386C10.1068 14.9441 10.498 15.3184 11.055 15.5875C11.3799 15.7517 11.5059 15.7714 12.0563 15.7714C12.6133 15.7714 12.7327 15.7517 13.104 15.581C13.6411 15.3381 14.1716 14.78 14.3838 14.2482C14.5893 13.723 14.5893 12.9023 14.3838 12.3771C14.1782 11.8584 13.7406 11.3923 13.1968 11.1297C12.8122 10.9393 12.6796 10.913 12.1558 10.8999C11.738 10.8868 11.4728 10.913 11.2672 10.9852Z" fill="black"/>
<path d="M18.4751 10.9656C17.4738 11.3398 16.8439 12.1474 16.7776 13.1453C16.7245 14.0316 17.1025 14.8457 17.8186 15.3512C18.7669 16.0275 20.0997 15.9421 20.9683 15.1477C22.2747 13.9594 21.963 11.8716 20.3649 11.0969C20.0466 10.9459 19.8875 10.9131 19.3504 10.8999C18.9393 10.8868 18.6342 10.9065 18.4751 10.9656Z" fill="black"/>
<path d="M25.7361 10.972C24.7348 11.2938 24.0717 12.1275 24.0054 13.1517C23.9656 13.7623 24.0783 14.2022 24.39 14.688C25.4973 16.3753 28.1166 16.0733 28.8327 14.1825C29.0383 13.631 28.9985 12.8432 28.7399 12.2786C28.5144 11.7927 27.9906 11.2675 27.5264 11.064C27.1286 10.8867 26.1538 10.8342 25.7361 10.972Z" fill="black"/>
</svg>
