<svg width="68" height="68" viewBox="0 0 68 68" fill="none" xmlns="http://www.w3.org/2000/svg">
<path d="M26.1402 1.50127C5.12203 6.35841 -5.74031 28.613 3.35579 48.1298C7.59475 57.0493 16.8675 64.8208 25.6103 66.6753C31.5272 68 40.7999 67.3818 46.0986 65.3506C51.9272 63.1428 59.8753 56.4311 63.1428 50.8675C67.8233 42.8311 68.7064 30.8208 65.3506 21.7246C59.6103 6.44672 42.5662 -2.38445 26.1402 1.50127ZM52.8103 19.6052C53.4285 20.2234 53.8701 21.2831 53.8701 22.0779C53.8701 23.7558 30.8207 46.8052 29.2311 46.8052C27.7298 46.8052 16.0727 35.5013 15.3662 33.3818C14.748 31.4389 16.4259 29.1428 18.3688 29.1428C19.1636 29.1428 21.9896 31.3506 24.7272 34L29.5844 38.8571L39.7402 28.7013C45.3038 23.1376 50.2493 18.5454 50.7792 18.5454C51.309 18.5454 52.1922 18.987 52.8103 19.6052Z" fill="#56685F"/>
</svg>
