<svg width="28" height="28" viewBox="0 0 28 28" fill="none" xmlns="http://www.w3.org/2000/svg">
<path d="M13.4062 0.284407C11.3906 0.362532 9.10625 1.02816 7.20312 2.09378C3.87812 3.95628 1.51875 7.10941 0.671875 10.8282C0.43125 11.8844 0.34375 12.6844 0.34375 13.8375C0.34375 14.7844 0.390625 15.3469 0.534375 16.1938C0.9125 18.4157 1.7875 20.4532 3.1125 22.2032C4.6625 24.2532 6.80937 25.8563 9.1875 26.7438C11.9375 27.7719 14.5937 27.9469 17.2656 27.2782C19.7187 26.6625 21.8937 25.4344 23.6406 23.675C26.0781 21.2188 27.4094 18.3532 27.6906 14.9469C27.7437 14.3063 27.7094 12.8094 27.6281 12.2C27.4094 10.5407 27.0094 9.21566 26.2937 7.78128C25.6625 6.51878 24.8937 5.44066 23.9125 4.43128C22.85 3.34066 21.7875 2.56253 20.3594 1.82503C19.5875 1.42816 19.0969 1.21878 18.3437 0.968782C17.1281 0.562532 15.975 0.337532 14.8969 0.296907C14.6719 0.287533 14.3719 0.275032 14.2344 0.271908C14.0969 0.265657 13.725 0.271908 13.4062 0.284407ZM8.90937 6.44066L9.10937 6.50628L11.5625 8.95628C12.9125 10.3032 14.0312 11.4063 14.0469 11.4063C14.0656 11.4063 15.1687 10.3157 16.5 8.98441C19.2281 6.25316 19.0656 6.39378 19.5312 6.39066C19.975 6.39066 20.0437 6.43441 20.8625 7.26253C21.5844 7.99378 21.6562 8.09066 21.7219 8.41253C21.75 8.55628 21.7469 8.61566 21.7062 8.76253C21.6125 9.08441 21.8281 8.85003 18.4312 12.2688C17.4875 13.2125 16.7187 14 16.7187 14.0188C16.7187 14.0344 17.8094 15.1375 19.1437 16.4688C21.8187 19.1407 21.7312 19.0375 21.7312 19.4219C21.7312 19.525 21.7031 19.6875 21.6719 19.7813C21.6219 19.9375 21.5469 20.0219 20.8937 20.6875C20.4969 21.0907 20.1125 21.4594 20.0406 21.5063C19.8625 21.6219 19.6625 21.6688 19.4094 21.65C19.0031 21.6188 19.1156 21.7188 16.4594 19.0594C15.1219 17.7219 14.0187 16.625 14.0031 16.625C13.9906 16.625 13.6656 16.9438 13.2812 17.3344C12.8969 17.7282 11.8156 18.8219 10.875 19.7688C9.5625 21.0875 9.12812 21.5063 9.0125 21.5657C8.88125 21.6282 8.8125 21.6407 8.54687 21.6407C8.1 21.6407 8.06562 21.6188 7.23125 20.775C6.85 20.3907 6.50937 20.0344 6.475 19.9813C6.3 19.725 6.275 19.3157 6.41562 19.0344C6.4625 18.9407 7.24687 18.1375 8.9375 16.45L11.3906 14L8.94687 11.5688C7.48437 10.1157 6.47812 9.09066 6.44062 9.01878C6.29687 8.74066 6.2875 8.39378 6.42187 8.11253C6.48437 7.98128 7.8875 6.58753 8.03125 6.51566C8.32812 6.36253 8.6 6.34066 8.90937 6.44066Z" fill="#595D75"/>
</svg>
