<svg width="19" height="19" viewBox="0 0 19 19" fill="none" xmlns="http://www.w3.org/2000/svg">
<path d="M8.88171 2.67179L6.33333 5.85746L3.78496 2.67179C3.68203 2.54455 3.54227 2.45227 3.38483 2.40758C3.2274 2.3629 3.05999 2.368 2.90557 2.42219C2.75115 2.47638 2.61727 2.57701 2.52228 2.71028C2.42729 2.84354 2.37585 3.00293 2.375 3.16658V15.0416C2.375 15.9148 3.08512 16.6249 3.95833 16.6249H15.0417C15.9149 16.6249 16.625 15.9148 16.625 15.0416V3.16658C16.6242 3.00293 16.5727 2.84354 16.4777 2.71028C16.3827 2.57701 16.2489 2.47638 16.0944 2.42219C15.94 2.368 15.7726 2.3629 15.6152 2.40758C15.4577 2.45227 15.318 2.54455 15.215 2.67179L12.6667 5.85746L10.1183 2.67179C9.81667 2.29654 9.18333 2.29654 8.88171 2.67179ZM3.95833 15.0416V13.4582H15.0425V15.0416H3.95833ZM12.0484 7.61971C12.35 7.99575 12.9841 7.99575 13.2858 7.61971L15.0417 5.42362L15.0425 11.8749H3.95833V5.42362L5.71504 7.61971C6.01667 7.99575 6.65079 7.99575 6.95242 7.61971L9.5 4.43404L12.0484 7.61971Z" fill="#595D75"/>
</svg>
