<svg width="37" height="37" viewBox="0 0 37 37" fill="none" xmlns="http://www.w3.org/2000/svg">
<path d="M17.7021 0.0697212C14.9937 0.174702 11.924 1.06914 9.3667 2.50107C4.89873 5.0038 1.72832 9.24082 0.590332 14.2379C0.266992 15.6572 0.149414 16.7322 0.149414 18.2817C0.149414 19.5541 0.212402 20.31 0.405566 21.4479C0.913672 24.4336 2.08945 27.1715 3.86992 29.523C5.95273 32.2777 8.8376 34.4319 12.0332 35.6245C15.7285 37.006 19.2978 37.2412 22.8882 36.3426C26.1846 35.5153 29.1072 33.865 31.4546 31.5009C34.73 28.2003 36.5188 24.3496 36.8968 19.7725C36.9682 18.9116 36.922 16.9002 36.8128 16.0813C36.5188 13.8516 35.9813 12.0711 35.0197 10.1436C34.1715 8.44716 33.1385 6.99843 31.8199 5.64208C30.3922 4.17656 28.9645 3.13095 27.0454 2.13993C26.0082 1.60663 25.3489 1.32529 24.3369 0.989349C22.7034 0.443451 21.1539 0.141106 19.7052 0.0865173C19.4028 0.0739174 18.9997 0.0571213 18.8149 0.0529213C18.6302 0.0445251 18.1305 0.0529213 17.7021 0.0697212ZM11.6595 8.34218L11.9282 8.43037L15.2246 11.7226C17.0387 13.5324 18.542 15.0147 18.563 15.0147C18.5882 15.0147 20.0705 13.5492 21.8594 11.7603C25.5253 8.09023 25.3069 8.27919 25.9326 8.275C26.5289 8.275 26.6213 8.33378 27.7215 9.44658C28.6915 10.4292 28.7881 10.5594 28.8763 10.9919C28.9141 11.1851 28.9099 11.2648 28.8553 11.4622C28.7293 11.8947 29.019 11.5798 24.4545 16.1737C23.1863 17.4419 22.1533 18.5001 22.1533 18.5253C22.1533 18.5463 23.6188 20.0286 25.4119 21.8175C29.0064 25.4078 28.8889 25.2692 28.8889 25.7857C28.8889 25.9243 28.8511 26.1427 28.8091 26.2686C28.7419 26.4786 28.6411 26.592 27.7635 27.4864C27.2302 28.0281 26.7137 28.5236 26.6171 28.5866C26.3777 28.742 26.109 28.805 25.7688 28.7798C25.2229 28.7378 25.3741 28.8722 21.8048 25.2986C20.0075 23.5014 18.5252 22.0274 18.5042 22.0274C18.4874 22.0274 18.0507 22.4558 17.5342 22.9807C17.0177 23.5098 15.5647 24.9795 14.3008 26.2518C12.5371 28.0239 11.9534 28.5866 11.798 28.6664C11.6217 28.7504 11.5293 28.7672 11.1724 28.7672C10.5719 28.7672 10.5257 28.7378 9.40449 27.604C8.89219 27.0875 8.43447 26.6088 8.38828 26.5374C8.15312 26.1931 8.11953 25.643 8.3085 25.265C8.37148 25.1391 9.42549 24.0599 11.6973 21.7923L14.9937 18.5001L11.7099 15.2331C9.74463 13.2805 8.39248 11.9031 8.34209 11.8065C8.14893 11.4328 8.13633 10.9667 8.31689 10.5888C8.40088 10.4124 10.2863 8.53955 10.4795 8.44296C10.8784 8.2372 11.2437 8.20781 11.6595 8.34218Z" fill="#EA4335"/>
</svg>
