<svg width="22" height="11" viewBox="0 0 22 11" fill="none" xmlns="http://www.w3.org/2000/svg">
<path d="M6.65741 10.4857C6.78874 10.4858 6.91881 10.46 7.04017 10.4098C7.16153 10.3596 7.27179 10.286 7.36466 10.1931C7.45753 10.1002 7.53117 9.98995 7.58138 9.8686C7.63159 9.74724 7.65737 9.61717 7.65726 9.48584L7.65726 7.23158C8.33538 6.86459 9.66403 6.24305 10.9001 6.24305C12.1361 6.24305 13.4647 6.86459 14.1428 7.23158V9.48584C14.1427 9.61717 14.1685 9.74724 14.2187 9.8686C14.2689 9.98995 14.3426 10.1002 14.4354 10.1931C14.5283 10.286 14.6386 10.3596 14.7599 10.4098C14.8813 10.46 15.0114 10.4858 15.1427 10.4857H20.7995C20.9309 10.4858 21.0609 10.46 21.1823 10.4098C21.3037 10.3596 21.4139 10.286 21.5068 10.1931C21.5997 10.1002 21.6733 9.98995 21.7235 9.8686C21.7737 9.74724 21.7995 9.61717 21.7994 9.48584V5.65049C21.7994 5.11309 21.5816 4.59266 21.1991 4.22143C20.1759 3.23077 16.4119 0 10.8993 0C5.38674 0 1.62352 3.23148 0.598921 4.22214L0.579122 4.24193C0.205769 4.61529 1.03542e-06 5.11521 1.03542e-06 5.64978L3.61073e-07 9.48513C-0.000111296 9.61646 0.0256747 9.74653 0.0758822 9.86789C0.12609 9.98925 0.199735 10.0995 0.292602 10.1924C0.385469 10.2852 0.495735 10.3589 0.617092 10.4091C0.73845 10.4593 0.868516 10.4851 0.999849 10.485L6.65741 10.4857ZM2.00111 5.64978C2.89843 4.78216 6.15466 1.9997 10.9001 2.0004C15.6603 2.0004 18.9208 4.79984 19.7997 5.65049V8.48599H16.1425V6.65741C16.1426 6.49125 16.1013 6.32769 16.0222 6.18152C15.9432 6.03534 15.829 5.91116 15.69 5.8202C15.5917 5.75585 13.2484 4.24264 10.9008 4.24264C8.55317 4.24264 6.20981 5.75585 6.11153 5.8202C5.97187 5.91041 5.85715 6.03432 5.77795 6.1805C5.69874 6.32668 5.65758 6.49044 5.65827 6.6567L5.65756 8.48599H2.00041L2.00111 5.64978Z" fill="#FBFAF6"/>
</svg>
