<svg width="31" height="31" viewBox="0 0 31 31" fill="none" xmlns="http://www.w3.org/2000/svg">
<path d="M22.0371 14.4926C22.8185 13.4876 23.245 12.2522 23.25 10.9792C23.25 7.77462 20.6421 5.16675 17.4375 5.16675H7.75V24.5417H18.0833C21.288 24.5417 23.8958 21.9339 23.8958 18.7292C23.8941 17.9332 23.7281 17.1461 23.4083 16.4171C23.0885 15.6881 22.6217 15.0329 22.0371 14.4926ZM17.4375 9.04175C18.5057 9.04175 19.375 9.91104 19.375 10.9792C19.375 12.0475 18.5057 12.9167 17.4375 12.9167H11.625V9.04175H17.4375ZM18.0833 20.6667H11.625V16.7917H18.0833C19.1515 16.7917 20.0208 17.661 20.0208 18.7292C20.0208 19.7975 19.1515 20.6667 18.0833 20.6667Z" fill="black"/>
</svg>
