<svg width="31" height="34" viewBox="0 0 31 34" fill="none" xmlns="http://www.w3.org/2000/svg">
<path d="M6.82258 17.0333C6.26975 17.4964 5.89258 17.8931 5.69237 18.2348C5.49216 18.5737 5.37075 18.9379 5.332 19.3192H8.79237V18.263H6.99179C7.09641 18.1487 7.18812 18.0499 7.26562 17.9793C7.34571 17.9087 7.50071 17.7788 7.73191 17.598C8.12329 17.2902 8.39196 17.005 8.5405 16.7452C8.69033 16.4826 8.76396 16.2158 8.76396 15.9292C8.76748 15.6722 8.69946 15.4201 8.56891 15.2063C8.44075 14.9901 8.25501 14.822 8.03675 14.7248C7.812 14.6175 7.49554 14.5681 7.08996 14.5681C6.70246 14.5681 6.39633 14.6217 6.17804 14.729C5.96779 14.8288 5.78965 14.995 5.66654 15.2063C5.54512 15.4082 5.46116 15.6948 5.41596 16.0591L6.57071 16.1664C6.603 15.9009 6.66629 15.7188 6.76058 15.6101C6.80786 15.559 6.86425 15.5191 6.92625 15.4928C6.98825 15.4666 7.05453 15.4546 7.12096 15.4576C7.26304 15.4576 7.37929 15.507 7.47229 15.6101C7.51758 15.6567 7.55341 15.7133 7.57744 15.776C7.60147 15.8388 7.61317 15.9063 7.61179 15.9743C7.60382 16.126 7.55532 16.2718 7.47229 16.3937C7.37671 16.5377 7.161 16.7523 6.82258 17.0333ZM6.89362 26.0497C6.75914 26.0543 6.62836 26.0011 6.52937 25.9015C6.43379 25.8026 6.36404 25.6261 6.32012 25.3678L5.16666 25.5344C5.24287 25.8224 5.35008 26.0596 5.49087 26.2488C5.63166 26.4366 5.81121 26.5806 6.0295 26.6808C6.2465 26.7783 6.54487 26.8263 6.92333 26.8263C7.31083 26.8263 7.62212 26.7599 7.85979 26.6286C8.09015 26.5028 8.28086 26.3047 8.40746 26.0596C8.53404 25.8125 8.59604 25.5598 8.59604 25.2915C8.60077 25.0991 8.56172 24.9085 8.48237 24.7366C8.40607 24.5855 8.29526 24.4586 8.16075 24.3681C8.04551 24.2962 7.92095 24.2439 7.79133 24.2128C7.96926 24.1141 8.12229 23.9692 8.23696 23.7907C8.33454 23.6307 8.38543 23.4421 8.38291 23.2499C8.3853 23.0886 8.35383 22.9289 8.2909 22.783C8.22798 22.6372 8.13529 22.509 8.01996 22.4084C7.77841 22.1839 7.38704 22.0724 6.84583 22.0724C6.37437 22.0724 6.00883 22.174 5.75179 22.3816C5.49346 22.5835 5.32037 22.88 5.22996 23.2654L6.32012 23.4786C6.34983 23.2499 6.40666 23.0918 6.49191 23.0014C6.57716 22.911 6.68696 22.863 6.82387 22.863C6.88081 22.8602 6.9377 22.8698 6.99116 22.8914C7.04463 22.913 7.0936 22.9461 7.13516 22.9887C7.21137 23.0734 7.24754 23.185 7.24754 23.3247C7.24754 23.4716 7.19846 23.5972 7.09641 23.7059C6.99437 23.8147 6.86779 23.8641 6.71796 23.8641C6.66776 23.8624 6.61771 23.8572 6.56812 23.8486L6.51 24.7649C6.63074 24.7208 6.75624 24.6943 6.88329 24.6858C7.05379 24.6858 7.18941 24.7437 7.28758 24.8637C7.38704 24.9795 7.43612 25.1447 7.43612 25.3607C7.43612 25.5668 7.38446 25.7363 7.28241 25.8605C7.23394 25.9209 7.17409 25.969 7.10698 26.0017C7.03987 26.0343 6.96708 26.0507 6.89362 26.0497ZM8.11812 11.8135V7.05957H7.16358C7.04689 7.34441 6.87294 7.59681 6.65466 7.798C6.43766 7.99849 6.13283 8.16792 5.74016 8.31334V9.37792C6.18172 9.24478 6.59363 9.01413 6.95046 8.70021V11.8149H8.11812V11.8135ZM11.625 8.47148H25.8333V11.2953H11.625V8.47148ZM11.625 15.531H25.8333V18.3548H11.625V15.531ZM11.625 22.5905H25.8333V25.4144H11.625V22.5905Z" fill="black"/>
</svg>
