<svg width="30" height="37" viewBox="0 0 30 37" fill="none" xmlns="http://www.w3.org/2000/svg">
    <path d="M2.34459 0.0733566C1.28271 0.313335 0.360085 1.21924 0.0873609 2.29314C0.0119265 2.60511 0.000321254 4.45892 0.000321254 18.5215C0.000321254 35.8538 -0.0228893 34.6839 0.325269 35.3978C0.528362 35.8058 1.16085 36.4477 1.57864 36.6517C2.31558 37.0237 1.40456 36.9997 15.0582 36.9997L27.5339 36.9937L27.9168 36.8617C28.4391 36.6757 28.9207 36.3697 29.234 36.0098C29.5416 35.6558 29.8549 35.0019 29.942 34.5459C29.9768 34.336 30 30.3523 30 23.0211C30 11.9822 30 11.8142 29.8839 11.3462C29.8201 11.0883 29.6809 10.7343 29.5822 10.5603C29.3327 10.1344 20.2864 0.793285 19.8396 0.505314C19.6597 0.385326 19.3463 0.229343 19.1432 0.151348L18.7719 0.0133629L10.7352 0.00136566C4.22465 -0.00463486 2.62892 0.00736618 2.34459 0.0733566ZM17.9015 2.83308L18.0466 2.97707V6.09676C18.0466 8.17855 18.0698 9.32444 18.1104 9.53442C18.2729 10.3263 18.8705 11.1303 19.5726 11.4962C20.24 11.8442 20.4198 11.8622 23.9536 11.8622C27.0465 11.8622 27.1625 11.8682 27.267 11.9762C27.3308 12.0422 27.4004 12.1862 27.4178 12.2941C27.4352 12.4021 27.441 17.3456 27.4352 23.2791L27.4178 34.072L27.2786 34.186C27.1451 34.3 26.8724 34.3 15.0002 34.3H2.84942L2.73337 34.144L2.61151 33.982V18.4795V2.97707L2.75658 2.83308L2.89584 2.6831H10.329H17.7622L17.9015 2.83308Z" fill="#a39170"/>
    <path d="M8.0188 17.0353C7.27323 17.2168 6.84637 18.0504 7.05126 18.9311C7.12525 19.2538 7.47812 19.7244 7.75699 19.8723C7.97896 19.9933 8.31475 20 14.9908 20H21.9912L22.2815 19.8387C23.2433 19.3076 23.2376 17.7681 22.2758 17.1563L22.0481 17.0084L15.1331 17.0017C11.3312 16.995 8.12694 17.0084 8.0188 17.0353Z" fill="#a39170"/>
    <path d="M7.90124 24.0783C7.60519 24.2056 7.4287 24.3463 7.26928 24.6009C6.87075 25.2308 6.91629 25.9812 7.39454 26.5374C7.55395 26.7317 7.74183 26.8791 7.88416 26.926C8.04358 26.9796 10.1387 26.9997 15.0065 26.9997C22.6641 26.9997 22.2143 27.0265 22.6299 26.5508C22.8975 26.2493 23 25.9611 23 25.5256C23 24.9293 22.7552 24.4602 22.2883 24.1654L22.0606 24.018L15.0862 24.0046C9.37013 23.9912 8.07204 24.0046 7.90124 24.0783Z" fill="#a39170"/>
</svg>
