<svg width="43" height="43" viewBox="0 0 43 43" fill="none" xmlns="http://www.w3.org/2000/svg">
<path d="M15.3904 24.2053L27.6275 31.3362M27.6096 11.6637L15.3904 18.7945M37.625 8.95825C37.625 11.9268 35.2185 14.3333 32.25 14.3333C29.2815 14.3333 26.875 11.9268 26.875 8.95825C26.875 5.98972 29.2815 3.58325 32.25 3.58325C35.2185 3.58325 37.625 5.98972 37.625 8.95825ZM16.125 21.4999C16.125 24.4684 13.7185 26.8749 10.75 26.8749C7.78147 26.8749 5.375 24.4684 5.375 21.4999C5.375 18.5314 7.78147 16.1249 10.75 16.1249C13.7185 16.1249 16.125 18.5314 16.125 21.4999ZM37.625 34.0416C37.625 37.0101 35.2185 39.4166 32.25 39.4166C29.2815 39.4166 26.875 37.0101 26.875 34.0416C26.875 31.0731 29.2815 28.6666 32.25 28.6666C35.2185 28.6666 37.625 31.0731 37.625 34.0416Z" stroke="white" stroke-width="4" stroke-linecap="round" stroke-linejoin="round"/>
</svg>
