<svg width="41" height="35" viewBox="0 0 41 35" fill="none" xmlns="http://www.w3.org/2000/svg">
<path d="M11.9537 0.110092C9.37708 0.58127 7.17557 2.31454 6.00143 4.79384C5.65353 5.52304 5.48502 6.03348 5.31651 6.84122C5.15344 7.63213 5.13713 9.29247 5.2839 10.0666C5.4361 10.8406 5.68071 11.5754 6.03404 12.3103C7.56151 15.5075 10.8393 17.381 14.2422 16.994C17.8461 16.5901 20.7271 13.836 21.4501 10.1114C21.586 9.40466 21.586 7.56482 21.4501 6.89731C20.8956 4.18803 19.2921 2.01725 16.9818 0.844906C16.2099 0.452257 15.6283 0.255932 14.7912 0.104483C13.9758 -0.0357494 12.7527 -0.0357494 11.9537 0.110092Z" fill="#595D75"/>
<path d="M27.8806 2.5559C26.7663 2.77466 26.2934 2.9205 25.6248 3.26828C24.8094 3.68897 24.0212 4.32282 23.4722 4.99593L23.2439 5.2764L23.4124 5.98878C23.6679 7.06015 23.7168 7.50328 23.7168 8.58026C23.7168 10.1396 23.4396 11.5083 22.8742 12.7367L22.597 13.3313L22.7057 13.5501C23.0971 14.3298 23.9723 15.3058 24.7876 15.8667C26.0868 16.7698 27.4295 17.1512 29.0493 17.0895C30.8975 17.0222 32.4141 16.3715 33.7133 15.087C34.8276 13.9876 35.556 12.5572 35.7952 10.9922C35.98 9.79186 35.8333 8.24931 35.4365 7.17794C34.5885 4.91179 32.6424 3.21779 30.2452 2.65687C29.8756 2.57273 28.1796 2.49981 27.8806 2.5559Z" fill="#595D75"/>
<path d="M11.6003 19.0191C9.80649 19.1593 8.23009 19.4342 7.22446 19.7763C3.65311 21.0104 1.25591 23.5906 0.375301 27.1581C0.092637 28.2856 0.0382786 28.8353 0.0110994 30.6808C-0.010644 32.1784 -0.00520812 32.5094 0.0708937 32.8347C0.326378 33.9453 1.16893 34.7699 2.22349 34.9438C2.45723 34.9775 6.27319 34.9999 13.5029 34.9999C25.3802 34.9999 24.7985 35.0111 25.4671 34.6858C26.0977 34.3773 26.6848 33.5639 26.8424 32.7674C26.9131 32.4084 26.9185 30.1647 26.8478 29.2953C26.5706 25.8119 25.1627 23.1755 22.5481 21.2403C21.5153 20.4775 19.5584 19.6024 18.3842 19.3837C17.6939 19.2491 16.3023 19.0808 15.4326 19.0135C14.5248 18.9518 12.4755 18.9518 11.6003 19.0191Z" fill="#595D75"/>
<path d="M27.0381 19.1088C26.0325 19.1761 23.9016 19.507 23.8147 19.608C23.7929 19.6304 23.8092 19.6585 23.8473 19.6697C23.9995 19.7258 24.9508 20.5279 25.4291 21.0047C27.2827 22.8502 28.4243 25.3126 28.8972 28.4763C28.9678 28.9362 28.9896 29.4972 28.9896 30.8041L28.995 32.5318H33.5666C36.3986 32.5318 38.2523 32.5093 38.4317 32.4757C39.3014 32.3074 40.0189 31.6567 40.3396 30.7312C40.4538 30.4002 40.4647 30.2881 40.4592 29.3064C40.4483 27.6349 40.2907 26.513 39.9102 25.3856C39.1927 23.254 37.7467 21.5264 35.779 20.4326C33.9634 19.4285 32.0608 19.0583 28.8374 19.0807C27.9948 19.0863 27.1903 19.0976 27.0381 19.1088Z" fill="#595D75"/>
</svg>
