<svg width="49" height="31" viewBox="0 0 49 31" fill="none" xmlns="http://www.w3.org/2000/svg">
<path d="M4.08752 0.019907C3.6303 0.0991592 2.97191 0.318623 2.56956 0.525894C1.20401 1.23915 0.25909 2.59861 0.0640104 4.13486C-0.0213368 4.81154 -0.0213368 26.1362 0.0640104 26.8799C0.216416 28.1784 0.990637 29.4464 2.11234 30.2206C2.51469 30.495 3.08774 30.7449 3.6364 30.8851C4.118 31.007 4.25212 31.007 18.5051 30.9948L32.8922 30.9766L33.3494 30.8363C34.7211 30.4096 35.7635 29.5196 36.3366 28.2942C36.745 27.4225 36.7816 27.2091 36.806 25.3497C36.8304 24.1122 36.8547 23.6916 36.9035 23.7099C36.9462 23.7281 38.9518 24.7157 41.366 25.9045C43.7801 27.0994 45.8894 28.1052 46.0479 28.1479C46.9806 28.3796 47.9377 27.9467 48.401 27.075L48.5595 26.7702L48.5778 15.5531C48.59 4.43967 48.59 4.32994 48.4681 3.92759C48.1632 2.92781 47.2915 2.36086 46.3039 2.52546C45.8589 2.59861 45.8955 2.58032 40.8661 5.07978L36.8243 7.08544V5.77475C36.8182 4.29336 36.7572 3.79957 36.4646 3.04973C35.922 1.6476 34.8674 0.653915 33.3799 0.154024L32.9532 0.00771523L18.5965 0.00161934C10.7019 -0.00447655 4.17287 0.00771523 4.08752 0.019907ZM32.8922 3.11069C33.2702 3.28749 33.5445 3.57401 33.7274 3.97026L33.8676 4.27507L33.8859 15.3824C33.8981 26.4593 33.8981 26.4897 33.7761 26.825C33.6298 27.203 33.2885 27.5871 32.9105 27.7882L32.6483 27.9284L18.4746 27.9467C2.40496 27.965 3.9534 28.0138 3.37426 27.4407C2.81951 26.886 2.86828 27.9589 2.84999 15.3641L2.83779 4.27507L2.97801 3.97026C3.19747 3.49476 3.56325 3.15947 4.02656 3.01925C4.11191 2.99487 10.5678 2.97048 18.3832 2.97048L32.5874 2.96439L32.8922 3.11069ZM45.5784 24.5877C45.5663 24.5999 45.1517 24.4109 44.6518 24.1732C44.1519 23.9354 43.2253 23.4904 42.5852 23.1917C41.9512 22.8869 40.9087 22.387 40.2686 22.0822C39.6346 21.7713 38.5983 21.2775 37.9704 20.9787L36.8243 20.4301V15.419V10.4018L41.2014 8.21934L45.5724 6.03079L45.5906 15.2971C45.5967 20.3935 45.5906 24.5755 45.5784 24.5877Z" fill="#A39170"/>
<path d="M17.3163 5.83581C15.1278 6.07966 12.9332 7.26233 11.403 9.01804C10.1533 10.4446 9.39124 11.9991 9.01937 13.8767C8.8182 14.8643 8.8182 16.3579 9.01328 17.3394C9.42782 19.4121 10.3484 21.0825 11.8968 22.5639C13.7744 24.3622 15.9508 25.2401 18.4746 25.234C20.0535 25.2279 21.2911 24.9414 22.7115 24.2464C23.6991 23.7587 24.4002 23.2527 25.278 22.381C27.113 20.5582 28.0518 18.4245 28.1493 15.858C28.2347 13.4439 27.5458 11.4017 25.9913 9.45697C23.8759 6.81121 20.6388 5.46394 17.3163 5.83581ZM20.1267 8.99366C22.108 9.53622 23.6259 10.7738 24.516 12.566C24.9732 13.4927 25.1744 14.2486 25.2231 15.2484C25.2963 16.8822 24.8696 18.2965 23.9186 19.5767C21.9251 22.253 18.0784 23.0577 15.1522 21.4239C13.5794 20.5399 12.4881 19.1256 12.037 17.3821C11.8236 16.5652 11.7688 15.2118 11.9151 14.3644C12.3906 11.5967 14.4084 9.46307 17.0725 8.90221C17.6943 8.77419 19.5293 8.82906 20.1267 8.99366Z" fill="#A39170"/>
<path d="M21.5349 11.9563C21.2362 12.0843 21.1265 12.188 20.3644 13.0231C18.877 14.6508 17.6638 15.9493 17.6272 15.9493C17.6029 15.9493 17.2066 15.5287 16.7494 15.0105C15.8471 14.0046 15.6704 13.8705 15.1461 13.8278C14.317 13.7608 13.6586 14.3643 13.6586 15.1873C13.6586 15.3763 13.7013 15.6262 13.75 15.7421C13.8354 15.9554 14.4938 16.7114 15.9874 18.3269C16.8469 19.2596 17.0786 19.3937 17.7736 19.351C18.0357 19.3327 18.2917 19.2718 18.4441 19.1986C18.6087 19.1133 19.2427 18.461 20.401 17.1869C21.3459 16.1566 22.3701 15.0349 22.6749 14.6996C23.3394 13.9803 23.4857 13.7364 23.4857 13.3036C23.4918 12.7427 23.1565 12.2184 22.6505 11.9807C22.3579 11.8466 21.8214 11.8344 21.5349 11.9563Z" fill="#A39170"/>
</svg>
