<svg width="23" height="26" viewBox="0 0 23 26" fill="none" xmlns="http://www.w3.org/2000/svg">
<path d="M19.6765 3.72197C19.247 3.72197 18.8394 3.81021 18.4727 3.96712C18.224 2.72244 17.0467 1.77674 15.6353 1.77674C15.1919 1.77674 14.7718 1.87023 14.396 2.03685C14.0847 0.868722 12.9468 0 11.5941 0C10.2413 0 9.10346 0.868775 8.79217 2.03685C8.41645 1.87028 7.99622 1.77674 7.55283 1.77674C5.96116 1.77674 4.66624 2.97917 4.66624 4.45715V11.0093C4.3124 10.8653 3.92201 10.7848 3.5116 10.7848C1.91993 10.7848 0.625 11.9872 0.625 13.4652V18.9773C0.625 22.8496 4.01768 26 8.18789 26H15.0003C19.1704 26 22.5631 22.8496 22.5631 18.9773V6.40238C22.5631 4.92435 21.2682 3.72197 19.6765 3.72197ZM20.8312 18.9773C20.8312 21.9628 18.2154 24.3918 15.0003 24.3918H8.18789C4.97274 24.3918 2.35696 21.9628 2.35696 18.9773V13.4652C2.35696 12.874 2.87493 12.393 3.5116 12.393C4.14827 12.393 4.66624 12.874 4.66624 13.4652V17.7539H6.3982V4.45715C6.3982 3.86596 6.91617 3.38499 7.55283 3.38499C8.1895 3.38499 8.70747 3.86596 8.70747 4.45715V12.9291H10.4394V2.68041C10.4394 2.08922 10.9574 1.60825 11.5941 1.60825C12.2307 1.60825 12.7487 2.08922 12.7487 2.68041V12.9291H14.4807V4.45715C14.4807 3.86596 14.9986 3.38499 15.6353 3.38499C16.272 3.38499 16.7899 3.86596 16.7899 4.45715V12.9291H18.5219V6.40233C18.5219 5.81113 19.0399 5.33016 19.6765 5.33016C20.3132 5.33016 20.8312 5.81113 20.8312 6.40233V18.9773Z" fill="#595D75"/>
</svg>
