<svg width="21" height="21" viewBox="0 0 21 21" fill="none" xmlns="http://www.w3.org/2000/svg">
<path d="M10.1251 0.794682C9.97424 0.88518 9.26533 1.58654 8.54134 2.35578C7.81735 3.11748 6.63333 4.36183 5.9018 5.10844C5.17027 5.85505 4.5217 6.57904 4.44629 6.70725C4.16725 7.25778 4.36333 8.02702 4.85353 8.27589C5.1024 8.4041 5.54735 8.4418 5.8113 8.35885C5.88672 8.33622 6.73137 7.50665 7.68915 6.52625L9.41616 4.74645L9.45387 9.94257C9.49158 14.9652 9.49912 15.1462 9.64241 15.3951C9.88374 15.8099 10.1628 15.9683 10.6228 15.9683C11.0828 15.9683 11.3619 15.8099 11.6032 15.3951C11.7465 15.1462 11.754 15.0029 11.754 9.95765C11.754 7.09941 11.754 4.76907 11.7616 4.76907C11.7616 4.76907 12.5082 5.51569 13.4207 6.43575C14.3257 7.34828 15.1854 8.16277 15.3212 8.25327C15.6681 8.46443 16.3091 8.41918 16.5882 8.15523C17.0784 7.70273 17.1387 7.09187 16.7541 6.55642C16.6183 6.36788 15.6379 5.30452 14.5821 4.18837C13.5263 3.07977 12.4026 1.89575 12.0934 1.55638C11.7842 1.22455 11.4071 0.870096 11.2563 0.78714C10.8943 0.575976 10.472 0.575976 10.1251 0.794682Z" fill="black"/>
<path d="M1.42929 14.4222C1.30862 14.4599 1.12762 14.5655 1.02958 14.6636C0.637424 15.0256 0.629883 15.0783 0.629883 17.4916C0.629883 19.5052 0.644966 19.7692 0.773172 20.0407C0.939086 20.4102 1.29354 20.727 1.67062 20.8325C1.8667 20.8929 4.66461 20.908 10.8185 20.8929L19.6874 20.8703L19.9664 20.6515C20.1323 20.5309 20.3284 20.2745 20.434 20.0482C20.6074 19.6711 20.615 19.6184 20.615 17.552C20.615 16.3453 20.5848 15.3197 20.5396 15.1613C20.4943 15.0105 20.3435 14.7842 20.1926 14.656C19.9664 14.4599 19.8684 14.4222 19.5214 14.4222C19.1972 14.4222 19.0765 14.4599 18.888 14.6183C18.4807 14.9577 18.4656 15.018 18.4279 16.8204L18.3902 18.4947H10.6224H2.85464L2.81693 16.8054C2.77922 15.2443 2.76414 15.0934 2.62085 14.9049C2.30411 14.475 1.85915 14.294 1.42929 14.4222Z" fill="black"/>
</svg>
