<svg width="50" height="50" viewBox="0 0 50 50" fill="none" xmlns="http://www.w3.org/2000/svg">
<path d="M25 37.5C25.7083 37.5 26.3021 37.2604 26.7813 36.7813C27.2604 36.3021 27.5 35.7083 27.5 35C27.5 34.2917 27.2604 33.6979 26.7813 33.2188C26.3021 32.7396 25.7083 32.5 25 32.5C24.2917 32.5 23.6979 32.7396 23.2188 33.2188C22.7396 33.6979 22.5 34.2917 22.5 35C22.5 35.7083 22.7396 36.3021 23.2188 36.7813C23.6979 37.2604 24.2917 37.5 25 37.5ZM22.5 27.5H27.5V12.5H22.5V27.5ZM25 50C21.5417 50 18.2917 49.3437 15.25 48.0312C12.2083 46.7187 9.5625 44.9375 7.3125 42.6875C5.0625 40.4375 3.28125 37.7917 1.96875 34.75C0.65625 31.7083 0 28.4583 0 25C0 21.5417 0.65625 18.2917 1.96875 15.25C3.28125 12.2083 5.0625 9.5625 7.3125 7.3125C9.5625 5.0625 12.2083 3.28125 15.25 1.96875C18.2917 0.65625 21.5417 0 25 0C28.4583 0 31.7083 0.65625 34.75 1.96875C37.7917 3.28125 40.4375 5.0625 42.6875 7.3125C44.9375 9.5625 46.7187 12.2083 48.0312 15.25C49.3437 18.2917 50 21.5417 50 25C50 28.4583 49.3437 31.7083 48.0312 34.75C46.7187 37.7917 44.9375 40.4375 42.6875 42.6875C40.4375 44.9375 37.7917 46.7187 34.75 48.0312C31.7083 49.3437 28.4583 50 25 50Z" fill="#E3B353"/>
</svg>
