<svg width="29" height="29" viewBox="0 0 29 29" fill="none" xmlns="http://www.w3.org/2000/svg">
<path d="M7.25 10.875H16.9167V13.2917H7.25V10.875Z" fill="#595D75"/>
<path d="M12.0833 21.7498C14.2281 21.7494 16.311 21.0314 18.0005 19.7102L23.3124 25.022L25.0209 23.3134L19.7091 18.0016C21.031 16.3119 21.7495 14.2285 21.75 12.0832C21.75 6.75321 17.4133 2.4165 12.0833 2.4165C6.75337 2.4165 2.41666 6.75321 2.41666 12.0832C2.41666 17.4131 6.75337 21.7498 12.0833 21.7498ZM12.0833 4.83317C16.0817 4.83317 19.3333 8.08479 19.3333 12.0832C19.3333 16.0815 16.0817 19.3332 12.0833 19.3332C8.08495 19.3332 4.83332 16.0815 4.83332 12.0832C4.83332 8.08479 8.08495 4.83317 12.0833 4.83317Z" fill="#595D75"/>
</svg>
